<?xml version="1.0" encoding="UTF-8"?><svg id="Layer_1" xmlns="http://www.w3.org/2000/svg" xmlns:xlink="http://www.w3.org/1999/xlink" viewBox="0 0 1920 1080"><defs><style>.cls-1,.cls-2{fill:none;}.cls-3{clip-path:url(#clippath);}.cls-4{fill:#2760f8;}.cls-5{clip-path:url(#clippath-1);}.cls-2{stroke:#33a6d3;stroke-miterlimit:10;stroke-width:.75px;}</style><clipPath id="clippath"><path class="cls-4" d="M1924.66,838.87c-15.12,14.45-38.83,32.02-69.5,33.38-52.08,2.31-69.72-39.29-107.38-42.5-87.35-7.45-156.43,237.78-243.32,235.9-73.97-1.6-87.16-180.66-195.05-191.54-75.64-7.63-125.29,74.72-210.82,60.06-62.17-10.65-71.63-60.29-115.26-55.91-51.63,5.18-58.57,76.72-146.78,95.64-2.19,.47-12.8,4.03-27.68,3.78-43.76-.71-71.2-34.51-152.6-32.43-97.38,2.49-122.37,52.49-173.38,34.19-77.11-27.67-66.22-158.48-114.27-163.55-51.77-5.46-76.43,145.06-162.54,152.46-51.15,4.39-89.3-42.4-161.56-31.42-22.29,3.39-38.99,10.87-48.85,16.06C-2.34,635.17-.34,317.35,1.66-.47H1921.66l3,839.34Z"/></clipPath><clipPath id="clippath-1"><path class="cls-1" d="M1923,839.22c-15.12,14.45-38.83,32.02-69.5,33.38-52.08,2.31-69.72-39.29-107.38-42.5-87.35-7.45-156.43,237.78-243.32,235.9-73.97-1.6-87.16-180.66-195.05-191.54-75.64-7.63-125.29,74.72-210.82,60.06-62.17-10.65-71.63-60.29-115.26-55.91-51.63,5.18-58.57,76.72-146.78,95.64-2.19,.47-12.8,4.03-27.68,3.78-43.76-.71-71.2-34.51-152.6-32.43-97.38,2.49-122.37,52.49-173.38,34.19-77.11-27.67-66.22-158.48-114.27-163.55-51.77-5.46-76.43,145.06-162.54,152.46-51.15,4.39-89.3-42.4-161.56-31.42-22.29,3.39-38.99,10.87-48.85,16.06C-4,635.52-2,317.7,0-.12H1920l3,839.34Z"/></clipPath></defs><g><path class="cls-4" d="M1924.66,838.87c-15.12,14.45-38.83,32.02-69.5,33.38-52.08,2.31-69.72-39.29-107.38-42.5-87.35-7.45-156.43,237.78-243.32,235.9-73.97-1.6-87.16-180.66-195.05-191.54-75.64-7.63-125.29,74.72-210.82,60.06-62.17-10.65-71.63-60.29-115.26-55.91-51.63,5.18-58.57,76.72-146.78,95.64-2.19,.47-12.8,4.03-27.68,3.78-43.76-.71-71.2-34.51-152.6-32.43-97.38,2.49-122.37,52.49-173.38,34.19-77.11-27.67-66.22-158.48-114.27-163.55-51.77-5.46-76.43,145.06-162.54,152.46-51.15,4.39-89.3-42.4-161.56-31.42-22.29,3.39-38.99,10.87-48.85,16.06C-2.34,635.17-.34,317.35,1.66-.47H1921.66l3,839.34Z"/><g class="cls-3"><rect class="cls-4" x="-4.34" y="-8.57" width="1943" height="1430.56"/></g></g><g class="cls-5"><g><rect class="cls-2" x="-6" y="-8.22" width="1943" height="1430.56"/><line class="cls-2" x1="-6" y1="1073.6" x2="1937" y2="1073.6"/><line class="cls-2" x1="-6" y1="1066.48" x2="1937" y2="1066.48"/><line class="cls-2" x1="-6" y1="1059.36" x2="1937" y2="1059.36"/><line class="cls-2" x1="-6" y1="1052.25" x2="1937" y2="1052.25"/><line class="cls-2" x1="-6" y1="1045.13" x2="1937" y2="1045.13"/><line class="cls-2" x1="-6" y1="1038.01" x2="1937" y2="1038.01"/><line class="cls-2" x1="-6" y1="1030.89" x2="1937" y2="1030.89"/><line class="cls-2" x1="-6" y1="1023.78" x2="1937" y2="1023.78"/><line class="cls-2" x1="-6" y1="1016.66" x2="1937" y2="1016.66"/><line class="cls-2" x1="-6" y1="1009.54" x2="1937" y2="1009.54"/><line class="cls-2" x1="-6" y1="1002.42" x2="1937" y2="1002.42"/><line class="cls-2" x1="-6" y1="995.31" x2="1937" y2="995.31"/><line class="cls-2" x1="-6" y1="988.19" x2="1937" y2="988.19"/><line class="cls-2" x1="-6" y1="981.07" x2="1937" y2="981.07"/><line class="cls-2" x1="-6" y1="973.96" x2="1937" y2="973.96"/><line class="cls-2" x1="-6" y1="966.84" x2="1937" y2="966.84"/><line class="cls-2" x1="-6" y1="959.72" x2="1937" y2="959.72"/><line class="cls-2" x1="-6" y1="952.6" x2="1937" y2="952.6"/><line class="cls-2" x1="-6" y1="945.49" x2="1937" y2="945.49"/><line class="cls-2" x1="-6" y1="938.37" x2="1937" y2="938.37"/><line class="cls-2" x1="-6" y1="931.25" x2="1937" y2="931.25"/><line class="cls-2" x1="-6" y1="924.14" x2="1937" y2="924.14"/><line class="cls-2" x1="-6" y1="917.02" x2="1937" y2="917.02"/><line class="cls-2" x1="-6" y1="909.9" x2="1937" y2="909.9"/><line class="cls-2" x1="-6" y1="902.78" x2="1937" y2="902.78"/><line class="cls-2" x1="-6" y1="895.67" x2="1937" y2="895.67"/><line class="cls-2" x1="-6" y1="888.55" x2="1937" y2="888.55"/><line class="cls-2" x1="-6" y1="881.43" x2="1937" y2="881.43"/><line class="cls-2" x1="-6" y1="874.31" x2="1937" y2="874.31"/><line class="cls-2" x1="-6" y1="867.2" x2="1937" y2="867.2"/><line class="cls-2" x1="-6" y1="860.08" x2="1937" y2="860.08"/><line class="cls-2" x1="-6" y1="852.96" x2="1937" y2="852.96"/><line class="cls-2" x1="-6" y1="845.85" x2="1937" y2="845.85"/><line class="cls-2" x1="-6" y1="838.73" x2="1937" y2="838.73"/><line class="cls-2" x1="-6" y1="831.61" x2="1937" y2="831.61"/><line class="cls-2" x1="-6" y1="824.49" x2="1937" y2="824.49"/><line class="cls-2" x1="-6" y1="817.38" x2="1937" y2="817.38"/><line class="cls-2" x1="-6" y1="810.26" x2="1937" y2="810.26"/><line class="cls-2" x1="-6" y1="803.14" x2="1937" y2="803.14"/><line class="cls-2" x1="-6" y1="796.03" x2="1937" y2="796.03"/><line class="cls-2" x1="-6" y1="788.91" x2="1937" y2="788.91"/><line class="cls-2" x1="-6" y1="781.79" x2="1937" y2="781.79"/><line class="cls-2" x1="-6" y1="774.67" x2="1937" y2="774.67"/><line class="cls-2" x1="-6" y1="767.56" x2="1937" y2="767.56"/><line class="cls-2" x1="-6" y1="760.44" x2="1937" y2="760.44"/><line class="cls-2" x1="-6" y1="753.32" x2="1937" y2="753.32"/><line class="cls-2" x1="-6" y1="746.2" x2="1937" y2="746.2"/><line class="cls-2" x1="-6" y1="739.09" x2="1937" y2="739.09"/><line class="cls-2" x1="-6" y1="731.97" x2="1937" y2="731.97"/><line class="cls-2" x1="-6" y1="724.85" x2="1937" y2="724.85"/><line class="cls-2" x1="-6" y1="717.74" x2="1937" y2="717.74"/><line class="cls-2" x1="-6" y1="710.62" x2="1937" y2="710.62"/><line class="cls-2" x1="-6" y1="703.5" x2="1937" y2="703.5"/><line class="cls-2" x1="-6" y1="696.38" x2="1937" y2="696.38"/><line class="cls-2" x1="-6" y1="689.27" x2="1937" y2="689.27"/><line class="cls-2" x1="-6" y1="682.15" x2="1937" y2="682.15"/><line class="cls-2" x1="-6" y1="675.03" x2="1937" y2="675.03"/><line class="cls-2" x1="-6" y1="667.91" x2="1937" y2="667.91"/><line class="cls-2" x1="-6" y1="660.8" x2="1937" y2="660.8"/><line class="cls-2" x1="-6" y1="653.68" x2="1937" y2="653.68"/><line class="cls-2" x1="-6" y1="646.56" x2="1937" y2="646.56"/><line class="cls-2" x1="-6" y1="639.45" x2="1937" y2="639.45"/><line class="cls-2" x1="-6" y1="632.33" x2="1937" y2="632.33"/><line class="cls-2" x1="-6" y1="625.21" x2="1937" y2="625.21"/><line class="cls-2" x1="-6" y1="618.09" x2="1937" y2="618.09"/><line class="cls-2" x1="-6" y1="610.98" x2="1937" y2="610.98"/><line class="cls-2" x1="-6" y1="603.86" x2="1937" y2="603.86"/><line class="cls-2" x1="-6" y1="596.74" x2="1937" y2="596.74"/><line class="cls-2" x1="-6" y1="589.63" x2="1937" y2="589.63"/><line class="cls-2" x1="-6" y1="582.51" x2="1937" y2="582.51"/><line class="cls-2" x1="-6" y1="575.39" x2="1937" y2="575.39"/><line class="cls-2" x1="-6" y1="568.27" x2="1937" y2="568.27"/><line class="cls-2" x1="-6" y1="561.16" x2="1937" y2="561.16"/><line class="cls-2" x1="-6" y1="554.04" x2="1937" y2="554.04"/><line class="cls-2" x1="-6" y1="546.92" x2="1937" y2="546.92"/><line class="cls-2" x1="-6" y1="539.8" x2="1937" y2="539.8"/><line class="cls-2" x1="-6" y1="532.69" x2="1937" y2="532.69"/><line class="cls-2" x1="-6" y1="525.57" x2="1937" y2="525.57"/><line class="cls-2" x1="-6" y1="518.45" x2="1937" y2="518.45"/><line class="cls-2" x1="-6" y1="511.34" x2="1937" y2="511.34"/><line class="cls-2" x1="-6" y1="504.22" x2="1937" y2="504.22"/><line class="cls-2" x1="-6" y1="497.1" x2="1937" y2="497.1"/><line class="cls-2" x1="-6" y1="489.98" x2="1937" y2="489.98"/><line class="cls-2" x1="-6" y1="482.87" x2="1937" y2="482.87"/><line class="cls-2" x1="-6" y1="475.75" x2="1937" y2="475.75"/><line class="cls-2" x1="-6" y1="468.63" x2="1937" y2="468.63"/><line class="cls-2" x1="-6" y1="461.52" x2="1937" y2="461.52"/><line class="cls-2" x1="-6" y1="454.4" x2="1937" y2="454.4"/><line class="cls-2" x1="-6" y1="447.28" x2="1937" y2="447.28"/><line class="cls-2" x1="-6" y1="440.16" x2="1937" y2="440.16"/><line class="cls-2" x1="-6" y1="433.05" x2="1937" y2="433.05"/><line class="cls-2" x1="-6" y1="425.93" x2="1937" y2="425.93"/><line class="cls-2" x1="-6" y1="418.81" x2="1937" y2="418.81"/><line class="cls-2" x1="-6" y1="411.69" x2="1937" y2="411.69"/><line class="cls-2" x1="-6" y1="404.58" x2="1937" y2="404.58"/><line class="cls-2" x1="-6" y1="397.46" x2="1937" y2="397.46"/><line class="cls-2" x1="-6" y1="390.34" x2="1937" y2="390.34"/><line class="cls-2" x1="-6" y1="383.23" x2="1937" y2="383.23"/><line class="cls-2" x1="-6" y1="376.11" x2="1937" y2="376.11"/><line class="cls-2" x1="-6" y1="368.99" x2="1937" y2="368.99"/><line class="cls-2" x1="-6" y1="361.87" x2="1937" y2="361.87"/><line class="cls-2" x1="-6" y1="354.76" x2="1937" y2="354.76"/><line class="cls-2" x1="-6" y1="347.64" x2="1937" y2="347.64"/><line class="cls-2" x1="-6" y1="340.52" x2="1937" y2="340.52"/><line class="cls-2" x1="-6" y1="333.4" x2="1937" y2="333.4"/><line class="cls-2" x1="-6" y1="326.29" x2="1937" y2="326.29"/><line class="cls-2" x1="-6" y1="319.17" x2="1937" y2="319.17"/><line class="cls-2" x1="-6" y1="312.05" x2="1937" y2="312.05"/><line class="cls-2" x1="-6" y1="304.94" x2="1937" y2="304.94"/><line class="cls-2" x1="-6" y1="297.82" x2="1937" y2="297.82"/><line class="cls-2" x1="-6" y1="290.7" x2="1937" y2="290.7"/><line class="cls-2" x1="-6" y1="283.58" x2="1937" y2="283.58"/><line class="cls-2" x1="-6" y1="276.47" x2="1937" y2="276.47"/><line class="cls-2" x1="-6" y1="269.35" x2="1937" y2="269.35"/><line class="cls-2" x1="-6" y1="262.23" x2="1937" y2="262.23"/><line class="cls-2" x1="-6" y1="255.12" x2="1937" y2="255.12"/><line class="cls-2" x1="-6" y1="248" x2="1937" y2="248"/><line class="cls-2" x1="-6" y1="240.88" x2="1937" y2="240.88"/><line class="cls-2" x1="-6" y1="233.76" x2="1937" y2="233.76"/><line class="cls-2" x1="-6" y1="226.65" x2="1937" y2="226.65"/><line class="cls-2" x1="-6" y1="219.53" x2="1937" y2="219.53"/><line class="cls-2" x1="-6" y1="212.41" x2="1937" y2="212.41"/><line class="cls-2" x1="-6" y1="205.29" x2="1937" y2="205.29"/><line class="cls-2" x1="-6" y1="198.18" x2="1937" y2="198.18"/><line class="cls-2" x1="-6" y1="191.06" x2="1937" y2="191.06"/><line class="cls-2" x1="-6" y1="183.94" x2="1937" y2="183.94"/><line class="cls-2" x1="-6" y1="176.83" x2="1937" y2="176.83"/><line class="cls-2" x1="-6" y1="169.71" x2="1937" y2="169.71"/><line class="cls-2" x1="-6" y1="162.59" x2="1937" y2="162.59"/><line class="cls-2" x1="-6" y1="155.47" x2="1937" y2="155.47"/><line class="cls-2" x1="-6" y1="148.36" x2="1937" y2="148.36"/><line class="cls-2" x1="-6" y1="141.24" x2="1937" y2="141.24"/><line class="cls-2" x1="-6" y1="134.12" x2="1937" y2="134.12"/><line class="cls-2" x1="-6" y1="127.01" x2="1937" y2="127.01"/><line class="cls-2" x1="-6" y1="119.89" x2="1937" y2="119.89"/><line class="cls-2" x1="-6" y1="112.77" x2="1937" y2="112.77"/><line class="cls-2" x1="-6" y1="105.65" x2="1937" y2="105.65"/><line class="cls-2" x1="-6" y1="98.54" x2="1937" y2="98.54"/><line class="cls-2" x1="-6" y1="91.42" x2="1937" y2="91.42"/><line class="cls-2" x1="-6" y1="84.3" x2="1937" y2="84.3"/><line class="cls-2" x1="-6" y1="77.18" x2="1937" y2="77.18"/><line class="cls-2" x1="-6" y1="70.07" x2="1937" y2="70.07"/><line class="cls-2" x1="-6" y1="62.95" x2="1937" y2="62.95"/><line class="cls-2" x1="-6" y1="55.83" x2="1937" y2="55.83"/><line class="cls-2" x1="-6" y1="48.72" x2="1937" y2="48.72"/><line class="cls-2" x1="-6" y1="41.6" x2="1937" y2="41.6"/><line class="cls-2" x1="-6" y1="34.48" x2="1937" y2="34.48"/><line class="cls-2" x1="-6" y1="27.36" x2="1937" y2="27.36"/><line class="cls-2" x1="-6" y1="20.25" x2="1937" y2="20.25"/><line class="cls-2" x1="-6" y1="13.13" x2="1937" y2="13.13"/><line class="cls-2" x1="-6" y1="6.01" x2="1937" y2="6.01"/><line class="cls-2" x1="1917.67" y1="-8.22" x2="1917.67" y2="1422.34"/><line class="cls-2" x1="1908" y1="-8.22" x2="1908" y2="1422.34"/><line class="cls-2" x1="1898.33" y1="-8.22" x2="1898.33" y2="1422.34"/><line class="cls-2" x1="1888.67" y1="-8.22" x2="1888.67" y2="1422.34"/><line class="cls-2" x1="1879" y1="-8.22" x2="1879" y2="1422.34"/><line class="cls-2" x1="1869.33" y1="-8.22" x2="1869.33" y2="1422.34"/><line class="cls-2" x1="1859.67" y1="-8.22" x2="1859.67" y2="1422.34"/><line class="cls-2" x1="1850" y1="-8.22" x2="1850" y2="1422.34"/><line class="cls-2" x1="1840.33" y1="-8.22" x2="1840.33" y2="1422.34"/><line class="cls-2" x1="1830.67" y1="-8.22" x2="1830.67" y2="1422.34"/><line class="cls-2" x1="1821" y1="-8.22" x2="1821" y2="1422.34"/><line class="cls-2" x1="1811.33" y1="-8.22" x2="1811.33" y2="1422.34"/><line class="cls-2" x1="1801.67" y1="-8.22" x2="1801.67" y2="1422.34"/><line class="cls-2" x1="1792" y1="-8.22" x2="1792" y2="1422.34"/><line class="cls-2" x1="1782.33" y1="-8.22" x2="1782.33" y2="1422.34"/><line class="cls-2" x1="1772.67" y1="-8.22" x2="1772.67" y2="1422.34"/><line class="cls-2" x1="1763" y1="-8.22" x2="1763" y2="1422.34"/><line class="cls-2" x1="1753.33" y1="-8.22" x2="1753.33" y2="1422.34"/><line class="cls-2" x1="1743.67" y1="-8.22" x2="1743.67" y2="1422.34"/><line class="cls-2" x1="1734" y1="-8.22" x2="1734" y2="1422.34"/><line class="cls-2" x1="1724.33" y1="-8.22" x2="1724.33" y2="1422.34"/><line class="cls-2" x1="1714.67" y1="-8.22" x2="1714.67" y2="1422.34"/><line class="cls-2" x1="1705" y1="-8.22" x2="1705" y2="1422.34"/><line class="cls-2" x1="1695.33" y1="-8.22" x2="1695.33" y2="1422.34"/><line class="cls-2" x1="1685.67" y1="-8.22" x2="1685.67" y2="1422.34"/><line class="cls-2" x1="1676" y1="-8.22" x2="1676" y2="1422.34"/><line class="cls-2" x1="1666.33" y1="-8.22" x2="1666.33" y2="1422.34"/><line class="cls-2" x1="1656.67" y1="-8.22" x2="1656.67" y2="1422.34"/><line class="cls-2" x1="1647" y1="-8.22" x2="1647" y2="1422.34"/><line class="cls-2" x1="1637.33" y1="-8.22" x2="1637.33" y2="1422.34"/><line class="cls-2" x1="1627.67" y1="-8.22" x2="1627.67" y2="1422.34"/><line class="cls-2" x1="1618" y1="-8.22" x2="1618" y2="1422.34"/><line class="cls-2" x1="1608.33" y1="-8.22" x2="1608.33" y2="1422.34"/><line class="cls-2" x1="1598.67" y1="-8.22" x2="1598.67" y2="1422.34"/><line class="cls-2" x1="1589" y1="-8.22" x2="1589" y2="1422.34"/><line class="cls-2" x1="1579.33" y1="-8.22" x2="1579.33" y2="1422.34"/><line class="cls-2" x1="1569.67" y1="-8.22" x2="1569.67" y2="1422.34"/><line class="cls-2" x1="1560" y1="-8.22" x2="1560" y2="1422.34"/><line class="cls-2" x1="1550.33" y1="-8.22" x2="1550.33" y2="1422.34"/><line class="cls-2" x1="1540.67" y1="-8.22" x2="1540.67" y2="1422.34"/><line class="cls-2" x1="1531" y1="-8.22" x2="1531" y2="1422.34"/><line class="cls-2" x1="1521.33" y1="-8.22" x2="1521.33" y2="1422.34"/><line class="cls-2" x1="1511.67" y1="-8.22" x2="1511.67" y2="1422.34"/><line class="cls-2" x1="1502" y1="-8.22" x2="1502" y2="1422.34"/><line class="cls-2" x1="1492.33" y1="-8.22" x2="1492.33" y2="1422.34"/><line class="cls-2" x1="1482.67" y1="-8.22" x2="1482.67" y2="1422.34"/><line class="cls-2" x1="1473" y1="-8.22" x2="1473" y2="1422.34"/><line class="cls-2" x1="1463.33" y1="-8.22" x2="1463.33" y2="1422.34"/><line class="cls-2" x1="1453.67" y1="-8.22" x2="1453.67" y2="1422.34"/><line class="cls-2" x1="1444" y1="-8.22" x2="1444" y2="1422.34"/><line class="cls-2" x1="1434.33" y1="-8.22" x2="1434.33" y2="1422.34"/><line class="cls-2" x1="1424.67" y1="-8.22" x2="1424.67" y2="1422.34"/><line class="cls-2" x1="1415" y1="-8.22" x2="1415" y2="1422.34"/><line class="cls-2" x1="1405.33" y1="-8.22" x2="1405.33" y2="1422.34"/><line class="cls-2" x1="1395.67" y1="-8.22" x2="1395.67" y2="1422.34"/><line class="cls-2" x1="1386" y1="-8.22" x2="1386" y2="1422.34"/><line class="cls-2" x1="1376.33" y1="-8.22" x2="1376.33" y2="1422.34"/><line class="cls-2" x1="1366.67" y1="-8.22" x2="1366.67" y2="1422.34"/><line class="cls-2" x1="1357" y1="-8.22" x2="1357" y2="1422.34"/><line class="cls-2" x1="1347.33" y1="-8.22" x2="1347.33" y2="1422.34"/><line class="cls-2" x1="1337.67" y1="-8.22" x2="1337.67" y2="1422.34"/><line class="cls-2" x1="1328" y1="-8.22" x2="1328" y2="1422.34"/><line class="cls-2" x1="1318.33" y1="-8.22" x2="1318.33" y2="1422.34"/><line class="cls-2" x1="1308.67" y1="-8.22" x2="1308.67" y2="1422.34"/><line class="cls-2" x1="1299" y1="-8.22" x2="1299" y2="1422.34"/><line class="cls-2" x1="1289.33" y1="-8.22" x2="1289.33" y2="1422.34"/><line class="cls-2" x1="1279.67" y1="-8.22" x2="1279.67" y2="1422.34"/><line class="cls-2" x1="1270" y1="-8.22" x2="1270" y2="1422.34"/><line class="cls-2" x1="1260.33" y1="-8.22" x2="1260.33" y2="1422.34"/><line class="cls-2" x1="1250.67" y1="-8.22" x2="1250.67" y2="1422.34"/><line class="cls-2" x1="1241" y1="-8.22" x2="1241" y2="1422.34"/><line class="cls-2" x1="1231.33" y1="-8.22" x2="1231.33" y2="1422.34"/><line class="cls-2" x1="1221.67" y1="-8.22" x2="1221.67" y2="1422.34"/><line class="cls-2" x1="1212" y1="-8.22" x2="1212" y2="1422.34"/><line class="cls-2" x1="1202.33" y1="-8.22" x2="1202.33" y2="1422.34"/><line class="cls-2" x1="1192.67" y1="-8.22" x2="1192.67" y2="1422.34"/><line class="cls-2" x1="1183" y1="-8.22" x2="1183" y2="1422.34"/><line class="cls-2" x1="1173.33" y1="-8.22" x2="1173.33" y2="1422.34"/><line class="cls-2" x1="1163.67" y1="-8.22" x2="1163.67" y2="1422.34"/><line class="cls-2" x1="1154" y1="-8.22" x2="1154" y2="1422.34"/><line class="cls-2" x1="1144.33" y1="-8.22" x2="1144.33" y2="1422.34"/><line class="cls-2" x1="1134.67" y1="-8.22" x2="1134.67" y2="1422.34"/><line class="cls-2" x1="1125" y1="-8.22" x2="1125" y2="1422.34"/><line class="cls-2" x1="1115.33" y1="-8.22" x2="1115.33" y2="1422.34"/><line class="cls-2" x1="1105.67" y1="-8.22" x2="1105.67" y2="1422.34"/><line class="cls-2" x1="1096" y1="-8.22" x2="1096" y2="1422.34"/><line class="cls-2" x1="1086.33" y1="-8.22" x2="1086.33" y2="1422.34"/><line class="cls-2" x1="1076.67" y1="-8.22" x2="1076.67" y2="1422.34"/><line class="cls-2" x1="1067" y1="-8.22" x2="1067" y2="1422.34"/><line class="cls-2" x1="1057.33" y1="-8.22" x2="1057.33" y2="1422.34"/><line class="cls-2" x1="1047.67" y1="-8.22" x2="1047.67" y2="1422.34"/><line class="cls-2" x1="1038" y1="-8.22" x2="1038" y2="1422.34"/><line class="cls-2" x1="1028.33" y1="-8.22" x2="1028.33" y2="1422.34"/><line class="cls-2" x1="1018.67" y1="-8.22" x2="1018.67" y2="1422.34"/><line class="cls-2" x1="1009" y1="-8.22" x2="1009" y2="1422.34"/><line class="cls-2" x1="999.33" y1="-8.22" x2="999.33" y2="1422.34"/><line class="cls-2" x1="989.67" y1="-8.22" x2="989.67" y2="1422.34"/><line class="cls-2" x1="980" y1="-8.22" x2="980" y2="1422.34"/><line class="cls-2" x1="970.33" y1="-8.22" x2="970.33" y2="1422.34"/><line class="cls-2" x1="960.67" y1="-8.22" x2="960.67" y2="1422.34"/><line class="cls-2" x1="951" y1="-8.22" x2="951" y2="1422.34"/><line class="cls-2" x1="941.33" y1="-8.22" x2="941.33" y2="1422.34"/><line class="cls-2" x1="931.67" y1="-8.22" x2="931.67" y2="1422.34"/><line class="cls-2" x1="922" y1="-8.22" x2="922" y2="1422.34"/><line class="cls-2" x1="912.33" y1="-8.22" x2="912.33" y2="1422.34"/><line class="cls-2" x1="902.67" y1="-8.22" x2="902.67" y2="1422.34"/><line class="cls-2" x1="893" y1="-8.22" x2="893" y2="1422.34"/><line class="cls-2" x1="883.33" y1="-8.22" x2="883.33" y2="1422.34"/><line class="cls-2" x1="873.67" y1="-8.22" x2="873.67" y2="1422.34"/><line class="cls-2" x1="864" y1="-8.22" x2="864" y2="1422.34"/><line class="cls-2" x1="854.33" y1="-8.22" x2="854.33" y2="1422.34"/><line class="cls-2" x1="844.67" y1="-8.22" x2="844.67" y2="1422.34"/><line class="cls-2" x1="835" y1="-8.22" x2="835" y2="1422.34"/><line class="cls-2" x1="825.33" y1="-8.22" x2="825.33" y2="1422.34"/><line class="cls-2" x1="815.67" y1="-8.22" x2="815.67" y2="1422.34"/><line class="cls-2" x1="806" y1="-8.22" x2="806" y2="1422.34"/><line class="cls-2" x1="796.33" y1="-8.22" x2="796.33" y2="1422.34"/><line class="cls-2" x1="786.67" y1="-8.22" x2="786.67" y2="1422.34"/><line class="cls-2" x1="777" y1="-8.22" x2="777" y2="1422.34"/><line class="cls-2" x1="767.33" y1="-8.22" x2="767.33" y2="1422.34"/><line class="cls-2" x1="757.67" y1="-8.22" x2="757.67" y2="1422.34"/><line class="cls-2" x1="748" y1="-8.22" x2="748" y2="1422.34"/><line class="cls-2" x1="738.33" y1="-8.22" x2="738.33" y2="1422.34"/><line class="cls-2" x1="728.67" y1="-8.22" x2="728.67" y2="1422.34"/><line class="cls-2" x1="719" y1="-8.22" x2="719" y2="1422.34"/><line class="cls-2" x1="709.33" y1="-8.22" x2="709.33" y2="1422.34"/><line class="cls-2" x1="699.67" y1="-8.22" x2="699.67" y2="1422.34"/><line class="cls-2" x1="690" y1="-8.22" x2="690" y2="1422.34"/><line class="cls-2" x1="680.33" y1="-8.22" x2="680.33" y2="1422.34"/><line class="cls-2" x1="670.67" y1="-8.22" x2="670.67" y2="1422.34"/><line class="cls-2" x1="661" y1="-8.22" x2="661" y2="1422.34"/><line class="cls-2" x1="651.33" y1="-8.22" x2="651.33" y2="1422.34"/><line class="cls-2" x1="641.67" y1="-8.22" x2="641.67" y2="1422.34"/><line class="cls-2" x1="632" y1="-8.22" x2="632" y2="1422.34"/><line class="cls-2" x1="622.33" y1="-8.22" x2="622.33" y2="1422.34"/><line class="cls-2" x1="612.67" y1="-8.22" x2="612.67" y2="1422.34"/><line class="cls-2" x1="603" y1="-8.22" x2="603" y2="1422.34"/><line class="cls-2" x1="593.33" y1="-8.22" x2="593.33" y2="1422.34"/><line class="cls-2" x1="583.67" y1="-8.22" x2="583.67" y2="1422.34"/><line class="cls-2" x1="574" y1="-8.22" x2="574" y2="1422.34"/><line class="cls-2" x1="564.33" y1="-8.22" x2="564.33" y2="1422.34"/><line class="cls-2" x1="554.67" y1="-8.22" x2="554.67" y2="1422.34"/><line class="cls-2" x1="545" y1="-8.22" x2="545" y2="1422.34"/><line class="cls-2" x1="535.33" y1="-8.22" x2="535.33" y2="1422.34"/><line class="cls-2" x1="525.67" y1="-8.22" x2="525.67" y2="1422.34"/><line class="cls-2" x1="516" y1="-8.22" x2="516" y2="1422.34"/><line class="cls-2" x1="506.33" y1="-8.22" x2="506.33" y2="1422.34"/><line class="cls-2" x1="496.67" y1="-8.22" x2="496.67" y2="1422.34"/><line class="cls-2" x1="487" y1="-8.22" x2="487" y2="1422.34"/><line class="cls-2" x1="477.33" y1="-8.22" x2="477.33" y2="1422.34"/><line class="cls-2" x1="467.67" y1="-8.22" x2="467.67" y2="1422.34"/><line class="cls-2" x1="458" y1="-8.22" x2="458" y2="1422.34"/><line class="cls-2" x1="448.33" y1="-8.22" x2="448.33" y2="1422.34"/><line class="cls-2" x1="438.67" y1="-8.22" x2="438.67" y2="1422.34"/><line class="cls-2" x1="429" y1="-8.22" x2="429" y2="1422.34"/><line class="cls-2" x1="419.33" y1="-8.22" x2="419.33" y2="1422.34"/><line class="cls-2" x1="409.67" y1="-8.22" x2="409.67" y2="1422.34"/><line class="cls-2" x1="400" y1="-8.22" x2="400" y2="1422.34"/><line class="cls-2" x1="390.33" y1="-8.22" x2="390.33" y2="1422.34"/><line class="cls-2" x1="380.67" y1="-8.22" x2="380.67" y2="1422.34"/><line class="cls-2" x1="371" y1="-8.22" x2="371" y2="1422.34"/><line class="cls-2" x1="361.33" y1="-8.22" x2="361.33" y2="1422.34"/><line class="cls-2" x1="351.67" y1="-8.22" x2="351.67" y2="1422.34"/><line class="cls-2" x1="342" y1="-8.22" x2="342" y2="1422.34"/><line class="cls-2" x1="332.33" y1="-8.22" x2="332.33" y2="1422.34"/><line class="cls-2" x1="322.67" y1="-8.22" x2="322.67" y2="1422.34"/><line class="cls-2" x1="313" y1="-8.22" x2="313" y2="1422.34"/><line class="cls-2" x1="303.33" y1="-8.22" x2="303.33" y2="1422.34"/><line class="cls-2" x1="293.67" y1="-8.22" x2="293.67" y2="1422.34"/><line class="cls-2" x1="284" y1="-8.22" x2="284" y2="1422.34"/><line class="cls-2" x1="274.33" y1="-8.22" x2="274.33" y2="1422.34"/><line class="cls-2" x1="264.67" y1="-8.22" x2="264.67" y2="1422.34"/><line class="cls-2" x1="255" y1="-8.22" x2="255" y2="1422.34"/><line class="cls-2" x1="245.33" y1="-8.22" x2="245.33" y2="1422.34"/><line class="cls-2" x1="235.67" y1="-8.22" x2="235.67" y2="1422.34"/><line class="cls-2" x1="226" y1="-8.22" x2="226" y2="1422.34"/><line class="cls-2" x1="216.33" y1="-8.22" x2="216.33" y2="1422.34"/><line class="cls-2" x1="206.67" y1="-8.22" x2="206.67" y2="1422.34"/><line class="cls-2" x1="197" y1="-8.22" x2="197" y2="1422.34"/><line class="cls-2" x1="187.33" y1="-8.22" x2="187.33" y2="1422.34"/><line class="cls-2" x1="177.67" y1="-8.22" x2="177.67" y2="1422.34"/><line class="cls-2" x1="168" y1="-8.22" x2="168" y2="1422.34"/><line class="cls-2" x1="158.33" y1="-8.22" x2="158.33" y2="1422.34"/><line class="cls-2" x1="148.67" y1="-8.22" x2="148.67" y2="1422.34"/><line class="cls-2" x1="139" y1="-8.22" x2="139" y2="1422.34"/><line class="cls-2" x1="129.33" y1="-8.22" x2="129.33" y2="1422.34"/><line class="cls-2" x1="119.67" y1="-8.22" x2="119.67" y2="1422.34"/><line class="cls-2" x1="110" y1="-8.22" x2="110" y2="1422.34"/><line class="cls-2" x1="100.33" y1="-8.22" x2="100.33" y2="1422.34"/><line class="cls-2" x1="90.67" y1="-8.22" x2="90.67" y2="1422.34"/><line class="cls-2" x1="81" y1="-8.22" x2="81" y2="1422.34"/><line class="cls-2" x1="71.33" y1="-8.22" x2="71.33" y2="1422.34"/><line class="cls-2" x1="61.67" y1="-8.22" x2="61.67" y2="1422.34"/><line class="cls-2" x1="52" y1="-8.22" x2="52" y2="1422.34"/><line class="cls-2" x1="42.33" y1="-8.22" x2="42.33" y2="1422.34"/><line class="cls-2" x1="32.67" y1="-8.22" x2="32.67" y2="1422.34"/><line class="cls-2" x1="23" y1="-8.22" x2="23" y2="1422.34"/><line class="cls-2" x1="13.33" y1="-8.22" x2="13.33" y2="1422.34"/><line class="cls-2" x1="3.67" y1="-8.22" x2="3.67" y2="1422.34"/></g></g></svg>